<mxfile host="app.diagrams.net" modified="2020-03-25T08:40:47.739Z" agent="Mozilla/5.0 (Windows NT 6.2; Win64; x64) AppleWebKit/537.36 (KHTML, like Gecko) Chrome/77.0.3865.120 Safari/537.36" etag="T-mcVeBjb0xFIi2qpobS" version="12.9.0" type="github">
  <diagram id="S9fF6DKeapb-z3vefFNl" name="Page-1">
    <mxGraphModel dx="1414" dy="754" grid="1" gridSize="10" guides="1" tooltips="1" connect="1" arrows="1" fold="1" page="1" pageScale="1" pageWidth="1169" pageHeight="827" math="0" shadow="0">
      <root>
        <mxCell id="0" />
        <mxCell id="1" parent="0" />
        <mxCell id="oIlpluFnvuG2AOdzgRo8-5" value="前研開發" style="text;html=1;strokeColor=#82b366;fillColor=#d5e8d4;align=center;verticalAlign=middle;whiteSpace=wrap;rounded=0;strokeWidth=3;" parent="1" vertex="1">
          <mxGeometry x="770" y="130" width="100" height="30" as="geometry" />
        </mxCell>
        <mxCell id="oIlpluFnvuG2AOdzgRo8-13" style="edgeStyle=orthogonalEdgeStyle;rounded=0;orthogonalLoop=1;jettySize=auto;html=1;exitX=0.5;exitY=1;exitDx=0;exitDy=0;" parent="1" edge="1">
          <mxGeometry relative="1" as="geometry">
            <mxPoint x="1650" y="901.6499999999999" as="sourcePoint" />
            <mxPoint x="1650" y="901.6499999999999" as="targetPoint" />
          </mxGeometry>
        </mxCell>
        <mxCell id="oIlpluFnvuG2AOdzgRo8-21" value="&lt;span lang=&quot;EN-US&quot; style=&quot;font-size: 16px&quot;&gt;設備部維修刷QRC&lt;span class=&quot;926482506-07022020&quot; style=&quot;font-size: 16px&quot;&gt;ode紀錄系統&amp;nbsp;&lt;/span&gt;&lt;/span&gt;Ver 2.0&lt;br style=&quot;font-size: 16px&quot;&gt;2020-03-24" style="text;html=1;align=left;verticalAlign=middle;resizable=0;points=[];autosize=1;fontSize=16;" parent="1" vertex="1">
          <mxGeometry x="207.51" y="50" width="290" height="40" as="geometry" />
        </mxCell>
        <mxCell id="oIlpluFnvuG2AOdzgRo8-23" value="&lt;span style=&quot;text-align: left ; white-space: nowrap&quot;&gt;通知刷條碼人員的上級&lt;/span&gt;&lt;span style=&quot;text-align: left ; white-space: nowrap&quot;&gt;&lt;br&gt;系統發出 Email&lt;br&gt;&lt;/span&gt;&lt;span style=&quot;text-align: left ; white-space: nowrap&quot;&gt;(超過2小時-課長 4小時-副理)&lt;/span&gt;&lt;span style=&quot;text-align: left ; white-space: nowrap&quot;&gt;&lt;br&gt;&lt;/span&gt;" style="rounded=0;whiteSpace=wrap;html=1;fillColor=#f8cecc;strokeColor=#b85450;" parent="1" vertex="1">
          <mxGeometry x="1570" y="704.5199999999999" width="160" height="48" as="geometry" />
        </mxCell>
        <mxCell id="oIlpluFnvuG2AOdzgRo8-28" value="&lt;div style=&quot;text-align: center&quot;&gt;&lt;span style=&quot;white-space: nowrap&quot;&gt;&lt;font color=&quot;#ff0000&quot;&gt;必填欄位&lt;/font&gt;&amp;nbsp;&lt;/span&gt;&lt;/div&gt;&lt;div&gt;&lt;span style=&quot;white-space: nowrap&quot;&gt;●&amp;nbsp;&lt;/span&gt;&lt;/div&gt;&lt;span style=&quot;white-space: nowrap&quot;&gt;●&amp;nbsp;&lt;/span&gt;&lt;span style=&quot;white-space: nowrap&quot;&gt;&lt;br&gt;&lt;/span&gt;&lt;div style=&quot;white-space: nowrap&quot;&gt;★&amp;nbsp;&lt;/div&gt;&lt;span style=&quot;text-align: center ; background-color: rgb(248 , 249 , 250)&quot;&gt;請修依據 (下拉式-預設(一般))&lt;br&gt;&lt;/span&gt;&lt;span style=&quot;white-space: nowrap&quot;&gt;○&amp;nbsp;&lt;/span&gt;&lt;span style=&quot;white-space: nowrap&quot;&gt;&lt;br&gt;&lt;/span&gt;&lt;span style=&quot;white-space: nowrap&quot;&gt;○&amp;nbsp;&lt;/span&gt;&lt;span style=&quot;white-space: nowrap&quot;&gt;&lt;br&gt;&lt;/span&gt;&lt;span style=&quot;white-space: nowrap&quot;&gt;★&amp;nbsp;&lt;/span&gt;&lt;font color=&quot;#ff0000&quot; style=&quot;white-space: nowrap&quot;&gt;固定資產否&lt;/font&gt;&lt;span style=&quot;white-space: nowrap&quot;&gt; (radio = 是(預設) + 否)&lt;/span&gt;&lt;span style=&quot;white-space: nowrap&quot;&gt;&lt;br&gt;&lt;/span&gt;&lt;span style=&quot;white-space: nowrap&quot;&gt;○&amp;nbsp;&lt;/span&gt;&lt;span style=&quot;white-space: nowrap&quot;&gt;&lt;br&gt;&lt;/span&gt;&lt;span style=&quot;white-space: nowrap&quot;&gt;○&amp;nbsp;&lt;/span&gt;&lt;span style=&quot;white-space: nowrap&quot;&gt;&lt;br&gt;&lt;/span&gt;&lt;span style=&quot;white-space: nowrap&quot;&gt;★&amp;nbsp;&lt;/span&gt;&lt;font color=&quot;#ff0000&quot; style=&quot;white-space: nowrap&quot;&gt;停機準備時間&lt;/font&gt;&lt;span style=&quot;white-space: nowrap&quot;&gt; (時間 格式00:00(預設))&lt;/span&gt;&lt;span style=&quot;white-space: nowrap&quot;&gt;&lt;br&gt;&lt;/span&gt;&lt;span style=&quot;white-space: nowrap&quot;&gt;★&amp;nbsp;&lt;/span&gt;&lt;font color=&quot;#ff0000&quot; style=&quot;white-space: nowrap&quot;&gt;開機準備時間&lt;/font&gt;&lt;span style=&quot;white-space: nowrap&quot;&gt; (時間 格式00:00(預設))&lt;/span&gt;&lt;span style=&quot;white-space: nowrap&quot;&gt;&lt;br&gt;&lt;/span&gt;&lt;span style=&quot;white-space: nowrap&quot;&gt;★&amp;nbsp;&lt;/span&gt;&lt;font color=&quot;#ff0000&quot; style=&quot;white-space: nowrap&quot;&gt;實際故障期間&lt;/font&gt;&lt;span style=&quot;white-space: nowrap&quot;&gt; (時間 格式0000-00-00 00:00(&lt;/span&gt;&lt;span style=&quot;white-space: nowrap ; background-color: rgb(255 , 255 , 0)&quot;&gt;開啟「登錄作業」頁面時間)&lt;/span&gt;&lt;span style=&quot;white-space: nowrap&quot;&gt;)&lt;/span&gt;&lt;span style=&quot;white-space: nowrap&quot;&gt;&lt;br&gt;&lt;/span&gt;&lt;span style=&quot;white-space: nowrap&quot;&gt;●&lt;/span&gt;&lt;span style=&quot;white-space: nowrap&quot;&gt;★&amp;nbsp;&lt;/span&gt;&lt;font color=&quot;#ff0000&quot; style=&quot;white-space: nowrap&quot;&gt;預計停機時間(起)&lt;/font&gt;&lt;span style=&quot;white-space: nowrap&quot;&gt; (時間 格式0000-00-00 00:00(&lt;/span&gt;&lt;span style=&quot;white-space: nowrap ; background-color: rgb(255 , 255 , 0)&quot;&gt;點(設備狀況-停機待修)-&amp;gt;點選時間，點(設備狀況-可生產)-&amp;gt;(實際故障期間)欄位&lt;/span&gt;&lt;span style=&quot;white-space: nowrap&quot;&gt;)&lt;/span&gt;&lt;span style=&quot;white-space: nowrap&quot;&gt;&lt;br&gt;&lt;/span&gt;&lt;span style=&quot;white-space: nowrap&quot;&gt;●&lt;/span&gt;&lt;span style=&quot;white-space: nowrap&quot;&gt;★&amp;nbsp;&lt;/span&gt;&lt;font color=&quot;#0000ff&quot; style=&quot;white-space: nowrap&quot;&gt;預計停機時間(迄)&lt;/font&gt;&lt;font color=&quot;#007fff&quot; style=&quot;white-space: nowrap&quot;&gt; &lt;/font&gt;&lt;span style=&quot;white-space: nowrap ; background-color: rgb(255 , 255 , 0)&quot;&gt;(如(設備狀況)為可生產 -&amp;nbsp;&lt;font color=&quot;#ff0000&quot;&gt;改為必填&lt;/font&gt;)&lt;/span&gt;&lt;span style=&quot;white-space: nowrap&quot;&gt;&lt;br&gt;&lt;/span&gt;&lt;span style=&quot;white-space: nowrap&quot;&gt;★&amp;nbsp;&lt;/span&gt;&lt;font color=&quot;#ff0000&quot; style=&quot;white-space: nowrap&quot;&gt;外修否&lt;/font&gt;&lt;span style=&quot;white-space: nowrap&quot;&gt; (radio = 是 + 否(預設))&lt;/span&gt;&lt;span style=&quot;white-space: nowrap&quot;&gt;&lt;br&gt;&lt;/span&gt;&lt;span style=&quot;white-space: nowrap&quot;&gt;★&amp;nbsp;&lt;/span&gt;&lt;font color=&quot;#ff0000&quot; style=&quot;white-space: nowrap&quot;&gt;故障否&lt;/font&gt;&lt;span style=&quot;white-space: nowrap&quot;&gt; (radio = 是 + 否(預設)) &lt;/span&gt;&lt;span style=&quot;white-space: nowrap ; background-color: rgb(255 , 255 , 0)&quot;&gt;(可複選機台為(是))&lt;/span&gt;&lt;span style=&quot;white-space: nowrap&quot;&gt;&lt;br&gt;&lt;/span&gt;&lt;div style=&quot;white-space: nowrap&quot;&gt;○&amp;nbsp;&lt;/div&gt;&lt;span style=&quot;white-space: nowrap&quot;&gt;○&amp;nbsp;&lt;/span&gt;&lt;span style=&quot;white-space: nowrap&quot;&gt;&lt;br&gt;&lt;/span&gt;&lt;span style=&quot;white-space: nowrap&quot;&gt;○&amp;nbsp;&lt;/span&gt;&lt;span style=&quot;white-space: nowrap&quot;&gt;&lt;br&gt;&lt;/span&gt;" style="rounded=0;whiteSpace=wrap;html=1;labelBackgroundColor=#ffffff;fillColor=#ffffff;gradientColor=none;align=left;spacingLeft=6;strokeColor=#006600;strokeWidth=2;" parent="1" vertex="1">
          <mxGeometry x="1570" y="197.52" width="700" height="288" as="geometry" />
        </mxCell>
        <mxCell id="oIlpluFnvuG2AOdzgRo8-40" value="" style="endArrow=classic;dashed=1;html=1;fontSize=2;fontColor=#FF0000;entryX=0;entryY=0.5;entryDx=0;entryDy=0;endFill=1;" parent="1" target="oIlpluFnvuG2AOdzgRo8-23" edge="1">
          <mxGeometry width="50" height="50" relative="1" as="geometry">
            <mxPoint x="455" y="723.9999999999999" as="sourcePoint" />
            <mxPoint x="272" y="846.4999999999999" as="targetPoint" />
          </mxGeometry>
        </mxCell>
        <mxCell id="oIlpluFnvuG2AOdzgRo8-47" value="操作人員" style="rounded=0;whiteSpace=wrap;html=1;align=center;labelBorderColor=none;fillColor=#e1d5e7;strokeColor=#9673a6;strokeWidth=3;" parent="1" vertex="1">
          <mxGeometry x="401.13" y="130" width="93" height="30" as="geometry" />
        </mxCell>
        <mxCell id="aB7RVZYVdwej4RVqtIuG-97" style="edgeStyle=orthogonalEdgeStyle;rounded=0;orthogonalLoop=1;jettySize=auto;html=1;exitX=1;exitY=0.5;exitDx=0;exitDy=0;entryX=0.5;entryY=1;entryDx=0;entryDy=0;dashed=1;startArrow=classic;startFill=1;" parent="1" target="aB7RVZYVdwej4RVqtIuG-12" edge="1">
          <mxGeometry relative="1" as="geometry">
            <mxPoint x="1130" y="658.25" as="sourcePoint" />
            <mxPoint x="1179.4999999999936" y="658.25" as="targetPoint" />
          </mxGeometry>
        </mxCell>
        <mxCell id="oIlpluFnvuG2AOdzgRo8-77" value="刷QRCode&lt;br&gt;&lt;font color=&quot;#0000ff&quot;&gt;(實際停機期間)&lt;/font&gt;" style="rounded=0;whiteSpace=wrap;html=1;align=center;labelBorderColor=none;fillColor=#e1d5e7;strokeColor=#9673a6;" parent="1" vertex="1">
          <mxGeometry x="590" y="638.25" width="92.5" height="40" as="geometry" />
        </mxCell>
        <mxCell id="oIlpluFnvuG2AOdzgRo8-120" value="上傳、回傳資料" style="text;html=1;align=center;verticalAlign=middle;resizable=0;points=[];autosize=1;fontColor=#000000;" parent="1" vertex="1">
          <mxGeometry x="1570" y="634.52" width="100" height="20" as="geometry" />
        </mxCell>
        <mxCell id="oIlpluFnvuG2AOdzgRo8-122" value="上傳、回傳資料" style="text;html=1;align=center;verticalAlign=middle;resizable=0;points=[];autosize=1;fontColor=#000000;" parent="1" vertex="1">
          <mxGeometry x="520" y="360" width="100" height="20" as="geometry" />
        </mxCell>
        <mxCell id="aB7RVZYVdwej4RVqtIuG-12" value="&lt;blockquote style=&quot;margin: 0 0 0 40px ; border: none ; padding: 0px&quot;&gt;&lt;blockquote style=&quot;margin: 0 0 0 40px ; border: none ; padding: 0px&quot;&gt;&lt;blockquote style=&quot;margin: 0 0 0 40px ; border: none ; padding: 0px&quot;&gt;&lt;div&gt;&lt;span style=&quot;white-space: nowrap&quot;&gt;&lt;span style=&quot;background-color: rgb(255 , 204 , 204)&quot;&gt;新增&lt;/span&gt;&lt;font color=&quot;#0000ff&quot;&gt;&amp;nbsp;&lt;/font&gt;&lt;font color=&quot;#ff0000&quot;&gt;必填欄位&amp;nbsp;&lt;/font&gt;&lt;/span&gt;&lt;/div&gt;&lt;div&gt;&lt;span style=&quot;white-space: nowrap&quot;&gt;&lt;font color=&quot;#ff0000&quot;&gt;&lt;br&gt;&lt;/font&gt;&lt;/span&gt;&lt;/div&gt;&lt;/blockquote&gt;&lt;/blockquote&gt;&lt;/blockquote&gt;&lt;span style=&quot;white-space: nowrap&quot;&gt;●○&amp;nbsp;&lt;/span&gt;&lt;font color=&quot;#ff0000&quot;&gt;預計停機時間(迄) &lt;/font&gt;&lt;span style=&quot;background-color: rgb(255 , 255 , 0)&quot;&gt;(視窗選日期、輸入時間)&lt;/span&gt;&lt;span style=&quot;white-space: nowrap&quot;&gt;&lt;br&gt;&lt;/span&gt;&lt;span style=&quot;white-space: nowrap&quot;&gt;★&amp;nbsp;&lt;/span&gt;&lt;font color=&quot;#ff0000&quot;&gt;簽約否&lt;/font&gt; (radio = 是 + 否)&lt;span style=&quot;white-space: nowrap&quot;&gt;&lt;br&gt;&lt;/span&gt;&lt;div&gt;&lt;div&gt;&lt;span style=&quot;white-space: nowrap&quot;&gt;●&amp;nbsp;&lt;/span&gt;&lt;font color=&quot;#ff0000&quot;&gt;出廠維修否&lt;/font&gt;&amp;nbsp;(radio = 是 + 否)&lt;/div&gt;&lt;/div&gt;" style="rounded=0;whiteSpace=wrap;html=1;labelBackgroundColor=#ffffff;fillColor=#ffffff;gradientColor=none;align=left;spacingLeft=6;strokeColor=#006600;strokeWidth=2;" parent="1" vertex="1">
          <mxGeometry x="1570" y="505.89" width="300" height="98.63" as="geometry" />
        </mxCell>
        <mxCell id="aB7RVZYVdwej4RVqtIuG-18" value="&lt;div style=&quot;text-align: center&quot;&gt;&lt;span style=&quot;white-space: nowrap&quot;&gt;&lt;font color=&quot;#0000ff&quot;&gt;非必填欄位&lt;/font&gt;&lt;/span&gt;&lt;/div&gt;&lt;div style=&quot;text-align: center&quot;&gt;&lt;span style=&quot;white-space: nowrap&quot;&gt;&lt;br&gt;&lt;/span&gt;&lt;/div&gt;&lt;div style=&quot;font-family: &amp;#34;tahoma&amp;#34; , &amp;#34;arial&amp;#34; , &amp;#34;helvetica&amp;#34; , sans-serif&quot;&gt;&lt;font face=&quot;tahoma, arial, helvetica, sans-serif&quot;&gt;● &lt;font color=&quot;#0000ff&quot;&gt;狀態 &lt;/font&gt;(文字)&lt;/font&gt;&lt;/div&gt;&lt;div&gt;&lt;span style=&quot;font-family: &amp;#34;tahoma&amp;#34; , &amp;#34;arial&amp;#34; , &amp;#34;helvetica&amp;#34; , sans-serif&quot;&gt;● &lt;font color=&quot;#0000ff&quot;&gt;廠別代號 &lt;/font&gt;(數字)&lt;/span&gt;&lt;br&gt;&lt;/div&gt;&lt;span style=&quot;font-family: &amp;#34;tahoma&amp;#34; , &amp;#34;arial&amp;#34; , &amp;#34;helvetica&amp;#34; , sans-serif&quot;&gt;● &lt;font color=&quot;#0000ff&quot;&gt;申請者 &lt;/font&gt;(文字)&lt;/span&gt;&lt;div&gt;&lt;span style=&quot;font-family: &amp;#34;tahoma&amp;#34; , &amp;#34;arial&amp;#34; , &amp;#34;helvetica&amp;#34; , sans-serif&quot;&gt;★&lt;/span&gt;&lt;font face=&quot;tahoma, arial, helvetica, sans-serif&quot; style=&quot;font-family: &amp;#34;tahoma&amp;#34; , &amp;#34;arial&amp;#34; , &amp;#34;helvetica&amp;#34; , sans-serif&quot;&gt;&amp;nbsp;&lt;font color=&quot;#0000ff&quot;&gt;設備類別&lt;/font&gt; (下拉選 = 生產設備 (預設) + 非生產設備)&lt;/font&gt;&lt;br&gt;&lt;/div&gt;&lt;div&gt;&lt;div style=&quot;font-family: &amp;#34;tahoma&amp;#34; , &amp;#34;arial&amp;#34; , &amp;#34;helvetica&amp;#34; , sans-serif&quot;&gt;★&lt;font face=&quot;tahoma, arial, helvetica, sans-serif&quot;&gt;&amp;nbsp;&lt;font color=&quot;#0000ff&quot;&gt;替代規格否&lt;/font&gt; (radio = 是 + 否(預設) )&lt;/font&gt;&lt;/div&gt;&lt;div style=&quot;font-family: &amp;#34;tahoma&amp;#34; , &amp;#34;arial&amp;#34; , &amp;#34;helvetica&amp;#34; , sans-serif&quot;&gt;&lt;font face=&quot;tahoma, arial, helvetica, sans-serif&quot;&gt;○ &lt;font color=&quot;#0000ff&quot;&gt;原有規格&lt;/font&gt; (文字)&lt;/font&gt;&lt;/div&gt;&lt;div style=&quot;font-family: &amp;#34;tahoma&amp;#34; , &amp;#34;arial&amp;#34; , &amp;#34;helvetica&amp;#34; , sans-serif&quot;&gt;&lt;font face=&quot;tahoma, arial, helvetica, sans-serif&quot;&gt;○ &lt;font color=&quot;#0000ff&quot;&gt;替代規格&lt;/font&gt; (文字)&lt;/font&gt;&lt;/div&gt;&lt;div style=&quot;font-family: &amp;#34;tahoma&amp;#34; , &amp;#34;arial&amp;#34; , &amp;#34;helvetica&amp;#34; , sans-serif&quot;&gt;★&lt;font face=&quot;tahoma, arial, helvetica, sans-serif&quot;&gt;&amp;nbsp;&lt;font color=&quot;#0000ff&quot;&gt;替代材質否&lt;/font&gt; (radio = 是 + 否(預設) )&lt;/font&gt;&lt;/div&gt;&lt;div style=&quot;font-family: &amp;#34;tahoma&amp;#34; , &amp;#34;arial&amp;#34; , &amp;#34;helvetica&amp;#34; , sans-serif&quot;&gt;&lt;font face=&quot;tahoma, arial, helvetica, sans-serif&quot;&gt;○ &lt;font color=&quot;#0000ff&quot;&gt;原有材質&lt;/font&gt; (文字)&lt;/font&gt;&lt;/div&gt;&lt;div style=&quot;font-family: &amp;#34;tahoma&amp;#34; , &amp;#34;arial&amp;#34; , &amp;#34;helvetica&amp;#34; , sans-serif&quot;&gt;&lt;font face=&quot;tahoma, arial, helvetica, sans-serif&quot;&gt;○ &lt;font color=&quot;#0000ff&quot;&gt;替代材質&lt;/font&gt; (文字)&lt;/font&gt;&lt;/div&gt;&lt;div style=&quot;font-family: &amp;#34;tahoma&amp;#34; , &amp;#34;arial&amp;#34; , &amp;#34;helvetica&amp;#34; , sans-serif&quot;&gt;&lt;font face=&quot;tahoma, arial, helvetica, sans-serif&quot;&gt;○ &lt;font color=&quot;#0000ff&quot;&gt;相關會議備忘&lt;/font&gt; (文字)&lt;/font&gt;&lt;/div&gt;&lt;/div&gt;&lt;div style=&quot;font-family: &amp;#34;tahoma&amp;#34; , &amp;#34;arial&amp;#34; , &amp;#34;helvetica&amp;#34; , sans-serif&quot;&gt;● &lt;font color=&quot;#0000ff&quot;&gt;序號 &lt;/font&gt;(數字)&lt;font color=&quot;#0000ff&quot;&gt;&amp;nbsp;&lt;/font&gt;&lt;/div&gt;&lt;div style=&quot;font-family: &amp;#34;tahoma&amp;#34; , &amp;#34;arial&amp;#34; , &amp;#34;helvetica&amp;#34; , sans-serif&quot;&gt;&lt;div&gt;&lt;font face=&quot;tahoma, arial, helvetica, sans-serif&quot;&gt;● &lt;font color=&quot;#0000ff&quot;&gt;資產編號 &lt;/font&gt;(數字)&lt;/font&gt;&lt;/div&gt;&lt;div&gt;&lt;font face=&quot;tahoma, arial, helvetica, sans-serif&quot;&gt;● &lt;font color=&quot;#0000ff&quot;&gt;資產名稱 &lt;/font&gt;(文字)&lt;/font&gt;&lt;/div&gt;&lt;div&gt;● &lt;font color=&quot;#0000ff&quot;&gt;異常現象名稱&lt;/font&gt; (選擇異常現象代碼帶入)&lt;font face=&quot;tahoma, arial, helvetica, sans-serif&quot;&gt;&lt;br&gt;&lt;/font&gt;&lt;/div&gt;&lt;/div&gt;" style="rounded=0;whiteSpace=wrap;html=1;labelBackgroundColor=#ffffff;fillColor=#ffffff;gradientColor=none;align=left;spacingLeft=6;strokeColor=#006600;strokeWidth=2;" parent="1" vertex="1">
          <mxGeometry x="2270" y="197.52" width="320" height="288" as="geometry" />
        </mxCell>
        <mxCell id="aB7RVZYVdwej4RVqtIuG-26" value="&lt;blockquote style=&quot;margin: 0 0 0 40px ; border: none ; padding: 0px&quot;&gt;&lt;blockquote style=&quot;margin: 0 0 0 40px ; border: none ; padding: 0px&quot;&gt;&lt;span style=&quot;white-space: nowrap&quot;&gt;&lt;span style=&quot;background-color: rgb(255 , 204 , 204)&quot;&gt;新增&lt;/span&gt;&lt;font color=&quot;#0000ff&quot;&gt;&amp;nbsp;非必填欄位&lt;/font&gt;&lt;/span&gt;&lt;/blockquote&gt;&lt;blockquote style=&quot;margin: 0 0 0 40px ; border: none ; padding: 0px&quot;&gt;&lt;/blockquote&gt;&lt;/blockquote&gt;&lt;span style=&quot;font-family: &amp;#34;tahoma&amp;#34; , &amp;#34;arial&amp;#34; , &amp;#34;helvetica&amp;#34; , sans-serif&quot;&gt;●&amp;nbsp;&lt;/span&gt;&lt;span style=&quot;color: rgb(0 , 0 , 255) ; white-space: nowrap&quot;&gt;核准者 &lt;/span&gt;&lt;span style=&quot;white-space: nowrap&quot;&gt;(文字)&lt;/span&gt;&lt;font color=&quot;#0000ff&quot;&gt;&lt;span style=&quot;white-space: nowrap&quot;&gt;&lt;br&gt;&lt;/span&gt;&lt;/font&gt;&lt;blockquote style=&quot;margin: 0 0 0 40px ; border: none ; padding: 0px&quot;&gt;&lt;blockquote style=&quot;margin: 0 0 0 40px ; border: none ; padding: 0px&quot;&gt;&lt;/blockquote&gt;&lt;/blockquote&gt;&lt;span style=&quot;font-family: &amp;#34;tahoma&amp;#34; , &amp;#34;arial&amp;#34; , &amp;#34;helvetica&amp;#34; , sans-serif&quot;&gt;●&amp;nbsp;&lt;/span&gt;&lt;span style=&quot;color: rgb(0 , 0 , 255) ; white-space: nowrap&quot;&gt;維修次數 &lt;/span&gt;&lt;span style=&quot;white-space: nowrap&quot;&gt;(數字)&lt;/span&gt;&lt;br&gt;&lt;span style=&quot;font-family: &amp;#34;tahoma&amp;#34; , &amp;#34;arial&amp;#34; , &amp;#34;helvetica&amp;#34; , sans-serif&quot;&gt;●&amp;nbsp;&lt;/span&gt;&lt;span style=&quot;white-space: nowrap&quot;&gt;&lt;font color=&quot;#0000ff&quot;&gt;部門代號 &lt;/font&gt;(文字)&lt;br&gt;&lt;/span&gt;&lt;span style=&quot;font-family: &amp;#34;tahoma&amp;#34; , &amp;#34;arial&amp;#34; , &amp;#34;helvetica&amp;#34; , sans-serif&quot;&gt;●&amp;nbsp;&lt;/span&gt;&lt;font color=&quot;#0000ff&quot;&gt;實際停機期間&lt;/font&gt; (&lt;span style=&quot;background-color: rgb(255 , 255 , 0)&quot;&gt;紀錄刷&lt;font color=&quot;#ff0000&quot;&gt;核准&lt;/font&gt;&lt;font color=&quot;#0000ff&quot;&gt;作業&lt;/font&gt;QRCode時間&lt;/span&gt;) &lt;font color=&quot;#0000ff&quot;&gt;&lt;br&gt;&lt;/font&gt;&lt;span style=&quot;font-family: &amp;#34;tahoma&amp;#34; , &amp;#34;arial&amp;#34; , &amp;#34;helvetica&amp;#34; , sans-serif&quot;&gt;○ &lt;font color=&quot;#0000ff&quot;&gt;重修原因代號&lt;/font&gt; (視窗點選)&lt;/span&gt;&lt;span style=&quot;font-family: &amp;#34;tahoma&amp;#34; , &amp;#34;arial&amp;#34; , &amp;#34;helvetica&amp;#34; , sans-serif ; white-space: pre&quot;&gt;	&lt;/span&gt;&lt;font color=&quot;#0000ff&quot;&gt;&lt;br&gt;&lt;/font&gt;&lt;div style=&quot;font-family: &amp;#34;tahoma&amp;#34; , &amp;#34;arial&amp;#34; , &amp;#34;helvetica&amp;#34; , sans-serif&quot;&gt;&lt;font face=&quot;tahoma, arial, helvetica, sans-serif&quot;&gt;○ &lt;font color=&quot;#0000ff&quot;&gt;廠商代號&lt;/font&gt; (視窗點選)&lt;/font&gt;&lt;/div&gt;&lt;div style=&quot;font-family: &amp;#34;tahoma&amp;#34; , &amp;#34;arial&amp;#34; , &amp;#34;helvetica&amp;#34; , sans-serif&quot;&gt;&lt;font face=&quot;tahoma, arial, helvetica, sans-serif&quot;&gt;● &lt;font color=&quot;#0000ff&quot;&gt;外修單日期 &lt;/font&gt;(選日期)&lt;/font&gt;&lt;/div&gt;&lt;div style=&quot;font-family: &amp;#34;tahoma&amp;#34; , &amp;#34;arial&amp;#34; , &amp;#34;helvetica&amp;#34; , sans-serif&quot;&gt;&lt;font face=&quot;tahoma, arial, helvetica, sans-serif&quot;&gt;● &lt;font color=&quot;#0000ff&quot;&gt;外修單號碼 &lt;/font&gt;&lt;span style=&quot;background-color: rgb(255 , 255 , 0)&quot;&gt;(選外修否-(是)自動帶入)&lt;/span&gt;&lt;/font&gt;&lt;/div&gt;" style="rounded=0;whiteSpace=wrap;html=1;labelBackgroundColor=#ffffff;fillColor=#ffffff;gradientColor=none;align=left;spacingLeft=6;strokeWidth=2;strokeColor=#006600;" parent="1" vertex="1">
          <mxGeometry x="1870" y="505.89" width="298" height="158.63" as="geometry" />
        </mxCell>
        <mxCell id="aB7RVZYVdwej4RVqtIuG-30" value="&amp;nbsp; &amp;nbsp; &amp;nbsp; &amp;nbsp; &amp;nbsp; &amp;nbsp; &amp;nbsp; &amp;nbsp;" style="text;html=1;align=center;verticalAlign=middle;resizable=0;points=[];autosize=1;" parent="1" vertex="1">
          <mxGeometry x="2202.5" y="833.65" width="70" height="20" as="geometry" />
        </mxCell>
        <mxCell id="aB7RVZYVdwej4RVqtIuG-53" style="edgeStyle=orthogonalEdgeStyle;rounded=0;orthogonalLoop=1;jettySize=auto;html=1;exitX=0;exitY=0.75;exitDx=0;exitDy=0;" parent="1" source="aB7RVZYVdwej4RVqtIuG-32" edge="1">
          <mxGeometry relative="1" as="geometry">
            <mxPoint x="500" y="823.13" as="targetPoint" />
          </mxGeometry>
        </mxCell>
        <mxCell id="aB7RVZYVdwej4RVqtIuG-32" value="&lt;blockquote style=&quot;margin: 0 0 0 40px ; border: none ; padding: 0px&quot;&gt;&lt;blockquote style=&quot;margin: 0 0 0 40px ; border: none ; padding: 0px&quot;&gt;&lt;blockquote style=&quot;margin: 0 0 0 40px ; border: none ; padding: 0px&quot;&gt;&lt;div&gt;&lt;span style=&quot;white-space: nowrap&quot;&gt;&lt;span style=&quot;background-color: rgb(255 , 204 , 204)&quot;&gt;新增&lt;/span&gt;&lt;font color=&quot;#0000ff&quot;&gt;&amp;nbsp;&lt;/font&gt;&lt;font color=&quot;#ff0000&quot;&gt;必填欄位&lt;/font&gt;&lt;/span&gt;&lt;/div&gt;&lt;/blockquote&gt;&lt;/blockquote&gt;&lt;/blockquote&gt;&lt;div style=&quot;font-family: &amp;#34;tahoma&amp;#34; , &amp;#34;arial&amp;#34; , &amp;#34;helvetica&amp;#34; , sans-serif&quot;&gt;&lt;font face=&quot;tahoma, arial, helvetica, sans-serif&quot;&gt;○&amp;nbsp;&lt;font color=&quot;#ff0000&quot;&gt;完工說明&amp;nbsp;&lt;/font&gt;(文字)&lt;/font&gt;&lt;/div&gt;&lt;div style=&quot;font-family: &amp;#34;tahoma&amp;#34; , &amp;#34;arial&amp;#34; , &amp;#34;helvetica&amp;#34; , sans-serif&quot;&gt;&lt;font face=&quot;tahoma, arial, helvetica, sans-serif&quot;&gt;★&amp;nbsp;&lt;font color=&quot;#ff0000&quot;&gt;參與維修人數 &lt;/font&gt;(數字)&lt;/font&gt;&lt;/div&gt;&lt;div style=&quot;font-family: &amp;#34;tahoma&amp;#34; , &amp;#34;arial&amp;#34; , &amp;#34;helvetica&amp;#34; , sans-serif&quot;&gt;&lt;div&gt;&lt;font face=&quot;tahoma, arial, helvetica, sans-serif&quot;&gt;○&amp;nbsp;&lt;font color=&quot;#0000ff&quot;&gt;環境清理&lt;/font&gt;&amp;nbsp;(radio = 完成 + 未完成)&lt;/font&gt;&lt;/div&gt;&lt;div&gt;&lt;font face=&quot;tahoma, arial, helvetica, sans-serif&quot;&gt;○&amp;nbsp;&lt;font color=&quot;#0000ff&quot;&gt;設備功能&lt;/font&gt;&amp;nbsp;(radio = 正常 + 異常)&lt;/font&gt;&lt;/div&gt;&lt;div&gt;&lt;font face=&quot;tahoma, arial, helvetica, sans-serif&quot;&gt;○&amp;nbsp;&lt;font color=&quot;#0000ff&quot;&gt;設備清潔&lt;/font&gt;&amp;nbsp;(radio = 完成 + 未完成)&lt;/font&gt;&lt;/div&gt;&lt;div&gt;&lt;font face=&quot;tahoma, arial, helvetica, sans-serif&quot;&gt;○&amp;nbsp;&lt;font color=&quot;#0000ff&quot;&gt;零件回裝正常&lt;/font&gt;&amp;nbsp;(radio = 正常 + 異常)&lt;/font&gt;&lt;/div&gt;&lt;div&gt;&lt;font face=&quot;tahoma, arial, helvetica, sans-serif&quot;&gt;○&amp;nbsp;&lt;font color=&quot;#0000ff&quot;&gt;螺絲緊定&lt;/font&gt;&amp;nbsp;(radio = 正常 + 異常)&lt;/font&gt;&lt;/div&gt;&lt;div&gt;&lt;font face=&quot;tahoma, arial, helvetica, sans-serif&quot;&gt;○&amp;nbsp;&lt;font color=&quot;#0000ff&quot;&gt;設備是否正常生產&lt;/font&gt;&amp;nbsp;(radio = 正常 + 異常)&lt;/font&gt;&lt;/div&gt;&lt;div&gt;&lt;font face=&quot;tahoma, arial, helvetica, sans-serif&quot;&gt;○&amp;nbsp;&lt;font color=&quot;#0000ff&quot;&gt;線管路整理&lt;/font&gt;&amp;nbsp;(radio = 完成 + 未完成)&lt;/font&gt;&lt;/div&gt;&lt;/div&gt;" style="rounded=0;whiteSpace=wrap;html=1;labelBackgroundColor=#ffffff;fillColor=#ffffff;gradientColor=none;align=left;spacingLeft=6;strokeColor=#006600;strokeWidth=2;" parent="1" vertex="1">
          <mxGeometry x="1570.5" y="773.4" width="300" height="221.12" as="geometry" />
        </mxCell>
        <mxCell id="aB7RVZYVdwej4RVqtIuG-33" value="&lt;blockquote style=&quot;margin: 0 0 0 40px ; border: none ; padding: 0px&quot;&gt;&lt;blockquote style=&quot;margin: 0 0 0 40px ; border: none ; padding: 0px&quot;&gt;&lt;span style=&quot;white-space: nowrap&quot;&gt;&lt;span style=&quot;background-color: rgb(255 , 204 , 204)&quot;&gt;新增&lt;/span&gt;&amp;nbsp;&lt;font color=&quot;#0000ff&quot;&gt;非必填欄位&lt;/font&gt;&lt;/span&gt;&lt;/blockquote&gt;&lt;blockquote style=&quot;margin: 0 0 0 40px ; border: none ; padding: 0px&quot;&gt;&lt;/blockquote&gt;&lt;/blockquote&gt;&lt;span style=&quot;white-space: nowrap ; background-color: rgb(248 , 249 , 250)&quot;&gt;●&amp;nbsp;&lt;/span&gt;&lt;span style=&quot;background-color: rgb(248 , 249 , 250) ; text-align: center ; white-space: nowrap&quot;&gt;&lt;font color=&quot;#0000ff&quot;&gt;完工登錄者&lt;/font&gt; (文字)&lt;/span&gt;&lt;br&gt;&lt;span style=&quot;white-space: nowrap ; background-color: rgb(248 , 249 , 250)&quot;&gt;●&amp;nbsp;&lt;/span&gt;&lt;span style=&quot;background-color: rgb(248 , 249 , 250) ; text-align: center ; white-space: nowrap&quot;&gt;&lt;font color=&quot;#0000ff&quot;&gt;核准部門代號&lt;/font&gt; (文字)&lt;/span&gt;&lt;br&gt;&lt;span style=&quot;white-space: nowrap ; background-color: rgb(248 , 249 , 250)&quot;&gt;● &lt;font color=&quot;#0000ff&quot;&gt;維修時間(起)&lt;/font&gt;&amp;nbsp;(&lt;/span&gt;&lt;span style=&quot;background-color: rgb(255 , 255 , 0)&quot;&gt;紀錄刷&lt;font color=&quot;#ff0000&quot;&gt;核准&lt;/font&gt;&lt;font color=&quot;#0000ff&quot;&gt;作業&lt;/font&gt;QRCode時間&lt;/span&gt;&lt;span style=&quot;white-space: nowrap ; background-color: rgb(248 , 249 , 250)&quot;&gt;)&amp;nbsp; &lt;br&gt;● &lt;font color=&quot;#0000ff&quot;&gt;維修時間(迄)&lt;/font&gt;&amp;nbsp;(&lt;/span&gt;&lt;span style=&quot;background-color: rgb(255 , 255 , 0)&quot;&gt;紀錄刷&lt;font color=&quot;#ff0000&quot;&gt;完工登錄&lt;/font&gt;&lt;font color=&quot;#0000ff&quot;&gt;作業&lt;/font&gt;QRCode時間&lt;/span&gt;&lt;span style=&quot;white-space: nowrap ; background-color: rgb(248 , 249 , 250)&quot;&gt;)&lt;/span&gt;&lt;span style=&quot;font-family: &amp;#34;tahoma&amp;#34; , &amp;#34;arial&amp;#34; , &amp;#34;helvetica&amp;#34; , sans-serif&quot;&gt;&lt;br&gt;&lt;/span&gt;&lt;div style=&quot;font-family: &amp;#34;tahoma&amp;#34; , &amp;#34;arial&amp;#34; , &amp;#34;helvetica&amp;#34; , sans-serif&quot;&gt;&lt;br&gt;&lt;/div&gt;&lt;div style=&quot;font-family: &amp;#34;tahoma&amp;#34; , &amp;#34;arial&amp;#34; , &amp;#34;helvetica&amp;#34; , sans-serif&quot;&gt;&lt;font face=&quot;tahoma, arial, helvetica, sans-serif&quot;&gt;○ &lt;font color=&quot;#0000ff&quot;&gt;備註&lt;/font&gt; (文字)&lt;/font&gt;&lt;/div&gt;&lt;div style=&quot;font-family: &amp;#34;tahoma&amp;#34; , &amp;#34;arial&amp;#34; , &amp;#34;helvetica&amp;#34; , sans-serif&quot;&gt;● &lt;font color=&quot;#0000ff&quot;&gt;完工會勘單位&lt;/font&gt; (文字)&lt;font face=&quot;tahoma, arial, helvetica, sans-serif&quot;&gt;&lt;br&gt;&lt;/font&gt;&lt;/div&gt;" style="rounded=0;whiteSpace=wrap;html=1;labelBackgroundColor=#ffffff;fillColor=#ffffff;gradientColor=none;align=left;spacingLeft=6;strokeWidth=2;strokeColor=#006600;" parent="1" vertex="1">
          <mxGeometry x="1870.5" y="773.27" width="300" height="222.38" as="geometry" />
        </mxCell>
        <mxCell id="aB7RVZYVdwej4RVqtIuG-47" value="&lt;blockquote style=&quot;margin: 0 0 0 40px ; border: none ; padding: 0px&quot;&gt;&lt;blockquote style=&quot;margin: 0 0 0 40px ; border: none ; padding: 0px&quot;&gt;&lt;blockquote style=&quot;margin: 0 0 0 40px ; border: none ; padding: 0px&quot;&gt;&lt;span style=&quot;background-color: rgb(255 , 204 , 204)&quot;&gt;不顯示&lt;/span&gt; 欄位&lt;/blockquote&gt;&lt;/blockquote&gt;&lt;/blockquote&gt;&lt;div style=&quot;font-family: &amp;#34;tahoma&amp;#34; , &amp;#34;arial&amp;#34; , &amp;#34;helvetica&amp;#34; , sans-serif&quot;&gt;○&amp;nbsp;&lt;font color=&quot;#0000ff&quot;&gt;重修原因代號&lt;/font&gt;&amp;nbsp;(視窗點選)&lt;span style=&quot;white-space: pre&quot;&gt;	&lt;/span&gt;&lt;br&gt;&lt;/div&gt;&lt;div style=&quot;font-family: &amp;#34;tahoma&amp;#34; , &amp;#34;arial&amp;#34; , &amp;#34;helvetica&amp;#34; , sans-serif&quot;&gt;&lt;div&gt;★&lt;font face=&quot;tahoma, arial, helvetica, sans-serif&quot;&gt;&amp;nbsp;&lt;font color=&quot;#0000ff&quot;&gt;替代規格否&lt;/font&gt;&amp;nbsp;(radio = 是 + 否(預設) )&lt;/font&gt;&lt;/div&gt;&lt;div&gt;&lt;font face=&quot;tahoma, arial, helvetica, sans-serif&quot;&gt;○&amp;nbsp;&lt;font color=&quot;#0000ff&quot;&gt;原有規格&lt;/font&gt;&amp;nbsp;(文字)&lt;/font&gt;&lt;/div&gt;&lt;div&gt;&lt;font face=&quot;tahoma, arial, helvetica, sans-serif&quot;&gt;○&amp;nbsp;&lt;font color=&quot;#0000ff&quot;&gt;替代規格&lt;/font&gt;&amp;nbsp;(文字)&lt;/font&gt;&lt;/div&gt;&lt;div&gt;★&lt;font face=&quot;tahoma, arial, helvetica, sans-serif&quot;&gt;&amp;nbsp;&lt;font color=&quot;#0000ff&quot;&gt;替代材質否&lt;/font&gt;&amp;nbsp;(radio = 是 + 否(預設) )&lt;/font&gt;&lt;/div&gt;&lt;div&gt;&lt;font face=&quot;tahoma, arial, helvetica, sans-serif&quot;&gt;○&amp;nbsp;&lt;font color=&quot;#0000ff&quot;&gt;原有材質&lt;/font&gt;&amp;nbsp;(文字)&lt;/font&gt;&lt;/div&gt;&lt;div&gt;&lt;font face=&quot;tahoma, arial, helvetica, sans-serif&quot;&gt;○&amp;nbsp;&lt;font color=&quot;#0000ff&quot;&gt;替代材質&lt;/font&gt;&amp;nbsp;(文字)&lt;/font&gt;&lt;/div&gt;&lt;/div&gt;" style="rounded=0;whiteSpace=wrap;html=1;labelBackgroundColor=#ffffff;fillColor=#ffffff;gradientColor=none;align=left;spacingLeft=6;strokeColor=#006600;strokeWidth=2;" parent="1" vertex="1">
          <mxGeometry x="2170.5" y="773.27" width="300" height="132.38" as="geometry" />
        </mxCell>
        <mxCell id="aB7RVZYVdwej4RVqtIuG-75" value="現場&lt;br&gt;建工單人員" style="text;html=1;strokeColor=#d6b656;fillColor=#fff2cc;align=center;verticalAlign=middle;whiteSpace=wrap;rounded=0;strokeWidth=3;" parent="1" vertex="1">
          <mxGeometry x="303.25" y="245.75" width="80" height="40" as="geometry" />
        </mxCell>
        <mxCell id="aB7RVZYVdwej4RVqtIuG-76" value="設備人員" style="text;html=1;strokeColor=#6c8ebf;fillColor=#dae8fc;align=center;verticalAlign=middle;whiteSpace=wrap;rounded=0;strokeWidth=3;" parent="1" vertex="1">
          <mxGeometry x="306.5" y="505.89" width="73.5" height="40" as="geometry" />
        </mxCell>
        <mxCell id="GGq2lKGUmqqDdp-gL5Bd-34" style="edgeStyle=orthogonalEdgeStyle;rounded=0;orthogonalLoop=1;jettySize=auto;html=1;exitX=0.5;exitY=1;exitDx=0;exitDy=0;entryX=0.5;entryY=0;entryDx=0;entryDy=0;" edge="1" parent="1" source="aB7RVZYVdwej4RVqtIuG-80" target="GGq2lKGUmqqDdp-gL5Bd-32">
          <mxGeometry relative="1" as="geometry" />
        </mxCell>
        <mxCell id="aB7RVZYVdwej4RVqtIuG-80" value="建立維修單" style="rounded=1;whiteSpace=wrap;html=1;strokeColor=#9673a6;strokeWidth=2;align=center;fillColor=#e1d5e7;" parent="1" vertex="1">
          <mxGeometry x="403.76" y="246.25" width="87.5" height="39.5" as="geometry" />
        </mxCell>
        <mxCell id="aB7RVZYVdwej4RVqtIuG-115" style="edgeStyle=orthogonalEdgeStyle;rounded=0;orthogonalLoop=1;jettySize=auto;html=1;exitX=0.5;exitY=1;exitDx=0;exitDy=0;entryX=0.5;entryY=0;entryDx=0;entryDy=0;startArrow=none;startFill=0;endArrow=classic;endFill=1;fontSize=21;" parent="1" source="aB7RVZYVdwej4RVqtIuG-81" target="GGq2lKGUmqqDdp-gL5Bd-24" edge="1">
          <mxGeometry relative="1" as="geometry">
            <mxPoint x="447.5050000000001" y="638.25" as="targetPoint" />
          </mxGeometry>
        </mxCell>
        <mxCell id="aB7RVZYVdwej4RVqtIuG-81" value="開始維修" style="rounded=0;whiteSpace=wrap;html=1;strokeColor=#9673a6;strokeWidth=2;align=center;fillColor=#e1d5e7;" parent="1" vertex="1">
          <mxGeometry x="408.89" y="505.8899999999999" width="77.5" height="46.69" as="geometry" />
        </mxCell>
        <mxCell id="aB7RVZYVdwej4RVqtIuG-99" style="edgeStyle=orthogonalEdgeStyle;rounded=0;orthogonalLoop=1;jettySize=auto;html=1;exitX=1;exitY=0.5;exitDx=0;exitDy=0;entryX=0;entryY=0.5;entryDx=0;entryDy=0;dashed=1;endArrow=none;endFill=0;" parent="1" target="oIlpluFnvuG2AOdzgRo8-77" edge="1">
          <mxGeometry relative="1" as="geometry">
            <mxPoint x="497.3800000000001" y="658.25" as="sourcePoint" />
          </mxGeometry>
        </mxCell>
        <mxCell id="aB7RVZYVdwej4RVqtIuG-131" style="edgeStyle=orthogonalEdgeStyle;rounded=0;orthogonalLoop=1;jettySize=auto;html=1;exitX=0.5;exitY=1;exitDx=0;exitDy=0;entryX=0.5;entryY=0;entryDx=0;entryDy=0;startArrow=none;startFill=0;endArrow=classic;endFill=1;fontSize=21;" parent="1" source="aB7RVZYVdwej4RVqtIuG-102" target="aB7RVZYVdwej4RVqtIuG-130" edge="1">
          <mxGeometry relative="1" as="geometry" />
        </mxCell>
        <mxCell id="aB7RVZYVdwej4RVqtIuG-102" value="刷QRCode&lt;br&gt;&lt;font color=&quot;#0000ff&quot;&gt;(維修時間(迄))&lt;/font&gt;" style="rounded=0;whiteSpace=wrap;html=1;align=center;labelBorderColor=none;fillColor=#e1d5e7;strokeColor=#9673a6;" parent="1" vertex="1">
          <mxGeometry x="518" y="895.76" width="92.5" height="40" as="geometry" />
        </mxCell>
        <mxCell id="aB7RVZYVdwej4RVqtIuG-109" style="edgeStyle=orthogonalEdgeStyle;rounded=0;orthogonalLoop=1;jettySize=auto;html=1;exitX=1;exitY=0.5;exitDx=0;exitDy=0;entryX=0;entryY=0.5;entryDx=0;entryDy=0;dashed=1;startArrow=none;startFill=0;endArrow=none;endFill=0;" parent="1" source="aB7RVZYVdwej4RVqtIuG-103" target="aB7RVZYVdwej4RVqtIuG-102" edge="1">
          <mxGeometry relative="1" as="geometry" />
        </mxCell>
        <mxCell id="aB7RVZYVdwej4RVqtIuG-128" style="edgeStyle=orthogonalEdgeStyle;rounded=0;orthogonalLoop=1;jettySize=auto;html=1;exitX=0.5;exitY=1;exitDx=0;exitDy=0;startArrow=none;startFill=0;endArrow=classic;endFill=1;fontSize=21;entryX=0.5;entryY=0;entryDx=0;entryDy=0;" parent="1" source="aB7RVZYVdwej4RVqtIuG-103" target="aB7RVZYVdwej4RVqtIuG-130" edge="1">
          <mxGeometry relative="1" as="geometry">
            <mxPoint x="447.5050000000001" y="990" as="targetPoint" />
          </mxGeometry>
        </mxCell>
        <mxCell id="aB7RVZYVdwej4RVqtIuG-103" value="&lt;span style=&quot;white-space: nowrap&quot;&gt;&lt;font color=&quot;#ff0000&quot;&gt;必填&lt;/font&gt;欄位&lt;/span&gt;&lt;div style=&quot;text-align: left&quot;&gt;&lt;span style=&quot;text-align: center&quot;&gt;&lt;font color=&quot;#0000ff&quot;&gt;完工說明&lt;/font&gt;&lt;/span&gt;&lt;/div&gt;" style="rounded=0;whiteSpace=wrap;html=1;align=center;labelBorderColor=none;fillColor=#e1d5e7;strokeColor=#9673a6;" parent="1" vertex="1">
          <mxGeometry x="397.63" y="895.76" width="99.75" height="40" as="geometry" />
        </mxCell>
        <mxCell id="aB7RVZYVdwej4RVqtIuG-106" value="上傳、回傳資料" style="text;html=1;align=center;verticalAlign=middle;resizable=0;points=[];autosize=1;fontColor=#000000;" parent="1" vertex="1">
          <mxGeometry x="960" y="895.76" width="100" height="20" as="geometry" />
        </mxCell>
        <mxCell id="aB7RVZYVdwej4RVqtIuG-118" style="edgeStyle=orthogonalEdgeStyle;rounded=0;orthogonalLoop=1;jettySize=auto;html=1;exitX=0.5;exitY=1;exitDx=0;exitDy=0;entryX=0.5;entryY=0;entryDx=0;entryDy=0;startArrow=none;startFill=0;endArrow=classic;endFill=1;fontSize=21;" parent="1" source="aB7RVZYVdwej4RVqtIuG-110" target="aB7RVZYVdwej4RVqtIuG-103" edge="1">
          <mxGeometry relative="1" as="geometry" />
        </mxCell>
        <mxCell id="aB7RVZYVdwej4RVqtIuG-119" style="edgeStyle=orthogonalEdgeStyle;rounded=0;orthogonalLoop=1;jettySize=auto;html=1;exitX=0.5;exitY=1;exitDx=0;exitDy=0;entryX=0.5;entryY=0;entryDx=0;entryDy=0;startArrow=none;startFill=0;endArrow=classic;endFill=1;fontSize=21;" parent="1" source="aB7RVZYVdwej4RVqtIuG-110" target="aB7RVZYVdwej4RVqtIuG-102" edge="1">
          <mxGeometry relative="1" as="geometry" />
        </mxCell>
        <mxCell id="aB7RVZYVdwej4RVqtIuG-110" value="結束維修" style="rounded=0;whiteSpace=wrap;html=1;strokeColor=#9673a6;strokeWidth=2;align=center;fillColor=#e1d5e7;" parent="1" vertex="1">
          <mxGeometry x="402.07" y="802.4399999999999" width="91.12" height="46.69" as="geometry" />
        </mxCell>
        <mxCell id="aB7RVZYVdwej4RVqtIuG-111" value="檢查機台人員" style="text;html=1;strokeColor=#36393d;fillColor=#cdeb8b;align=center;verticalAlign=middle;whiteSpace=wrap;rounded=0;strokeWidth=3;" parent="1" vertex="1">
          <mxGeometry x="305.38" y="898.13" width="82.25" height="40" as="geometry" />
        </mxCell>
        <mxCell id="aB7RVZYVdwej4RVqtIuG-130" value="完成" style="rounded=1;whiteSpace=wrap;html=1;align=center;labelBorderColor=none;fillColor=#e1d5e7;strokeColor=#9673a6;" parent="1" vertex="1">
          <mxGeometry x="397.76" y="990" width="99.75" height="30" as="geometry" />
        </mxCell>
        <mxCell id="aB7RVZYVdwej4RVqtIuG-133" value="&lt;span style=&quot;font-size: 12px ; background-color: rgb(255 , 255 , 255)&quot;&gt;(●系統帶入不可改 ○手動輸入 ★系統帶入可更改)&amp;nbsp;&lt;/span&gt;" style="text;html=1;align=center;verticalAlign=middle;resizable=0;points=[];autosize=1;fontSize=21;" parent="1" vertex="1">
          <mxGeometry x="1809.5" y="162.52" width="280" height="30" as="geometry" />
        </mxCell>
        <mxCell id="aB7RVZYVdwej4RVqtIuG-134" value="&amp;nbsp; &amp;nbsp; &amp;nbsp;&amp;nbsp;" style="text;html=1;align=center;verticalAlign=middle;resizable=0;points=[];autosize=1;fontSize=21;" parent="1" vertex="1">
          <mxGeometry x="540" y="337" width="50" height="30" as="geometry" />
        </mxCell>
        <mxCell id="aB7RVZYVdwej4RVqtIuG-139" value="ERP 對應欄位" style="text;html=1;strokeColor=#666666;fillColor=#f5f5f5;align=center;verticalAlign=middle;whiteSpace=wrap;rounded=0;strokeWidth=3;fontColor=#333333;" parent="1" vertex="1">
          <mxGeometry x="1570.5" y="134.52" width="100" height="30" as="geometry" />
        </mxCell>
        <mxCell id="aB7RVZYVdwej4RVqtIuG-153" style="edgeStyle=orthogonalEdgeStyle;rounded=0;orthogonalLoop=1;jettySize=auto;html=1;exitX=1;exitY=0.5;exitDx=0;exitDy=0;entryX=0;entryY=0.5;entryDx=0;entryDy=0;startArrow=none;startFill=0;endArrow=classic;endFill=1;fontSize=21;" parent="1" source="aB7RVZYVdwej4RVqtIuG-144" target="aB7RVZYVdwej4RVqtIuG-152" edge="1">
          <mxGeometry relative="1" as="geometry" />
        </mxCell>
        <mxCell id="aB7RVZYVdwej4RVqtIuG-144" value="&lt;div&gt;&lt;span&gt;代理人 (跳window選)&lt;/span&gt;&lt;/div&gt;" style="text;html=1;strokeColor=#82b366;fillColor=#d5e8d4;align=center;verticalAlign=middle;whiteSpace=wrap;rounded=0;strokeWidth=1;labelPosition=center;verticalLabelPosition=middle;spacingLeft=0;" parent="1" vertex="1">
          <mxGeometry x="735" y="255.75" width="205" height="30" as="geometry" />
        </mxCell>
        <mxCell id="aB7RVZYVdwej4RVqtIuG-155" style="edgeStyle=orthogonalEdgeStyle;rounded=0;orthogonalLoop=1;jettySize=auto;html=1;exitX=1;exitY=0.5;exitDx=0;exitDy=0;entryX=0;entryY=0.5;entryDx=0;entryDy=0;startArrow=none;startFill=0;endArrow=classic;endFill=1;fontSize=21;" parent="1" source="aB7RVZYVdwej4RVqtIuG-145" target="aB7RVZYVdwej4RVqtIuG-154" edge="1">
          <mxGeometry relative="1" as="geometry" />
        </mxCell>
        <mxCell id="aB7RVZYVdwej4RVqtIuG-145" value="&lt;span style=&quot;text-align: left&quot;&gt;作業類別 (跳window選)&lt;/span&gt;" style="text;html=1;strokeColor=#82b366;fillColor=#d5e8d4;align=center;verticalAlign=middle;whiteSpace=wrap;rounded=0;strokeWidth=1;labelPosition=center;verticalLabelPosition=middle;spacingLeft=0;" parent="1" vertex="1">
          <mxGeometry x="735" y="300" width="205" height="30" as="geometry" />
        </mxCell>
        <mxCell id="GGq2lKGUmqqDdp-gL5Bd-14" style="edgeStyle=orthogonalEdgeStyle;rounded=0;orthogonalLoop=1;jettySize=auto;html=1;exitX=1;exitY=0.5;exitDx=0;exitDy=0;entryX=0;entryY=0.5;entryDx=0;entryDy=0;" edge="1" parent="1" source="aB7RVZYVdwej4RVqtIuG-149" target="aB7RVZYVdwej4RVqtIuG-157">
          <mxGeometry relative="1" as="geometry" />
        </mxCell>
        <mxCell id="GGq2lKGUmqqDdp-gL5Bd-16" style="edgeStyle=orthogonalEdgeStyle;rounded=0;orthogonalLoop=1;jettySize=auto;html=1;exitX=0.25;exitY=1;exitDx=0;exitDy=0;entryX=0;entryY=0.5;entryDx=0;entryDy=0;" edge="1" parent="1" source="aB7RVZYVdwej4RVqtIuG-149" target="aB7RVZYVdwej4RVqtIuG-150">
          <mxGeometry relative="1" as="geometry" />
        </mxCell>
        <mxCell id="GGq2lKGUmqqDdp-gL5Bd-17" style="edgeStyle=orthogonalEdgeStyle;rounded=0;orthogonalLoop=1;jettySize=auto;html=1;exitX=0.25;exitY=1;exitDx=0;exitDy=0;entryX=0;entryY=0.5;entryDx=0;entryDy=0;" edge="1" parent="1" source="aB7RVZYVdwej4RVqtIuG-149" target="GGq2lKGUmqqDdp-gL5Bd-1">
          <mxGeometry relative="1" as="geometry" />
        </mxCell>
        <mxCell id="GGq2lKGUmqqDdp-gL5Bd-18" style="edgeStyle=orthogonalEdgeStyle;rounded=0;orthogonalLoop=1;jettySize=auto;html=1;exitX=0.25;exitY=1;exitDx=0;exitDy=0;entryX=0;entryY=0.5;entryDx=0;entryDy=0;" edge="1" parent="1" source="aB7RVZYVdwej4RVqtIuG-149" target="GGq2lKGUmqqDdp-gL5Bd-10">
          <mxGeometry relative="1" as="geometry" />
        </mxCell>
        <mxCell id="aB7RVZYVdwej4RVqtIuG-149" value="&lt;span style=&quot;text-align: left ; white-space: nowrap&quot;&gt;刷機台QRCode&lt;/span&gt;" style="text;html=1;strokeColor=#82b366;fillColor=#d5e8d4;align=center;verticalAlign=middle;whiteSpace=wrap;rounded=0;strokeWidth=1;labelPosition=center;verticalLabelPosition=middle;spacingLeft=0;" parent="1" vertex="1">
          <mxGeometry x="735" y="345" width="205" height="30" as="geometry" />
        </mxCell>
        <mxCell id="GGq2lKGUmqqDdp-gL5Bd-13" style="edgeStyle=orthogonalEdgeStyle;rounded=0;orthogonalLoop=1;jettySize=auto;html=1;exitX=1;exitY=0.5;exitDx=0;exitDy=0;entryX=0;entryY=0.5;entryDx=0;entryDy=0;" edge="1" parent="1" source="aB7RVZYVdwej4RVqtIuG-150" target="GGq2lKGUmqqDdp-gL5Bd-4">
          <mxGeometry relative="1" as="geometry" />
        </mxCell>
        <mxCell id="aB7RVZYVdwej4RVqtIuG-150" value="&lt;div style=&quot;text-align: left&quot;&gt;&lt;span&gt;設備狀況&lt;/span&gt;&lt;/div&gt;" style="text;html=1;strokeColor=#82b366;fillColor=#d5e8d4;align=center;verticalAlign=middle;whiteSpace=wrap;rounded=0;strokeWidth=1;labelPosition=center;verticalLabelPosition=middle;spacingLeft=0;" parent="1" vertex="1">
          <mxGeometry x="860" y="390" width="205" height="30" as="geometry" />
        </mxCell>
        <mxCell id="aB7RVZYVdwej4RVqtIuG-151" value="&lt;font style=&quot;font-size: 12px&quot;&gt;系統帶入&lt;br&gt;&lt;font color=&quot;#ff0000&quot; style=&quot;white-space: nowrap&quot;&gt;單據日期&lt;/font&gt;&lt;span style=&quot;white-space: nowrap&quot;&gt;&amp;nbsp;&lt;br&gt;&lt;/span&gt;&lt;font color=&quot;#ff0000&quot; style=&quot;white-space: nowrap&quot;&gt;單據號碼&lt;/font&gt;&lt;span style=&quot;white-space: nowrap&quot;&gt;&amp;nbsp;&lt;/span&gt;&lt;br&gt;&lt;br&gt;&lt;/font&gt;" style="rounded=0;whiteSpace=wrap;html=1;strokeColor=#82b366;strokeWidth=1;fontSize=21;align=left;fillColor=#d5e8d4;" parent="1" vertex="1">
          <mxGeometry x="990" y="30" width="120" height="123" as="geometry" />
        </mxCell>
        <mxCell id="aB7RVZYVdwej4RVqtIuG-152" value="&lt;font style=&quot;font-size: 12px&quot;&gt;&lt;font color=&quot;#ff0000&quot; style=&quot;white-space: nowrap&quot;&gt;代理人&lt;/font&gt;&lt;span style=&quot;white-space: nowrap&quot;&gt;&amp;nbsp;&lt;/span&gt;&lt;br&gt;&lt;/font&gt;" style="rounded=0;whiteSpace=wrap;html=1;strokeColor=#82b366;strokeWidth=1;fontSize=21;align=left;fillColor=#d5e8d4;verticalAlign=middle;horizontal=1;" parent="1" vertex="1">
          <mxGeometry x="990" y="255.75" width="120" height="28" as="geometry" />
        </mxCell>
        <mxCell id="aB7RVZYVdwej4RVqtIuG-154" value="&lt;font style=&quot;font-size: 12px&quot;&gt;&lt;font color=&quot;#ff0000&quot; style=&quot;white-space: nowrap&quot;&gt;作業類別&lt;/font&gt;&lt;br&gt;&lt;/font&gt;" style="rounded=0;whiteSpace=wrap;html=1;strokeColor=#82b366;strokeWidth=1;fontSize=21;align=left;fillColor=#d5e8d4;" parent="1" vertex="1">
          <mxGeometry x="990" y="302" width="120" height="28" as="geometry" />
        </mxCell>
        <mxCell id="aB7RVZYVdwej4RVqtIuG-157" value="&lt;font style=&quot;font-size: 12px&quot;&gt;&lt;font color=&quot;#ff0000&quot; style=&quot;white-space: nowrap&quot;&gt;設備編號&lt;/font&gt;&lt;span style=&quot;white-space: nowrap&quot;&gt;&amp;nbsp;&lt;/span&gt;&lt;span style=&quot;white-space: nowrap&quot;&gt;&amp;nbsp;&lt;/span&gt;&lt;br&gt;&lt;/font&gt;" style="rounded=0;whiteSpace=wrap;html=1;strokeColor=#82b366;strokeWidth=1;fontSize=21;align=left;fillColor=#d5e8d4;" parent="1" vertex="1">
          <mxGeometry x="990" y="345" width="120" height="35" as="geometry" />
        </mxCell>
        <mxCell id="GGq2lKGUmqqDdp-gL5Bd-19" style="edgeStyle=orthogonalEdgeStyle;rounded=0;orthogonalLoop=1;jettySize=auto;html=1;exitX=1;exitY=0.5;exitDx=0;exitDy=0;entryX=0;entryY=0.5;entryDx=0;entryDy=0;" edge="1" parent="1" source="GGq2lKGUmqqDdp-gL5Bd-1" target="GGq2lKGUmqqDdp-gL5Bd-12">
          <mxGeometry relative="1" as="geometry" />
        </mxCell>
        <mxCell id="GGq2lKGUmqqDdp-gL5Bd-1" value="&lt;div style=&quot;text-align: left&quot;&gt;故障情形說明&lt;/div&gt;" style="text;html=1;strokeColor=#82b366;fillColor=#d5e8d4;align=center;verticalAlign=middle;whiteSpace=wrap;rounded=0;strokeWidth=1;labelPosition=center;verticalLabelPosition=middle;spacingLeft=0;" vertex="1" parent="1">
          <mxGeometry x="860" y="440" width="205" height="30" as="geometry" />
        </mxCell>
        <mxCell id="GGq2lKGUmqqDdp-gL5Bd-4" value="&lt;font style=&quot;font-size: 12px&quot;&gt;&lt;font color=&quot;#ff0000&quot; style=&quot;white-space: nowrap&quot;&gt;設備狀況&amp;nbsp;&lt;/font&gt;&lt;span style=&quot;white-space: nowrap&quot;&gt;&lt;br&gt;&lt;/span&gt;&lt;span style=&quot;color: rgb(255 , 0 , 0) ; white-space: nowrap&quot;&gt;機台狀況&lt;/span&gt;&lt;span style=&quot;white-space: nowrap&quot;&gt;&amp;nbsp;&lt;/span&gt;&lt;br&gt;&lt;/font&gt;" style="rounded=0;whiteSpace=wrap;html=1;strokeColor=#82b366;strokeWidth=1;fontSize=21;align=left;fillColor=#d5e8d4;" vertex="1" parent="1">
          <mxGeometry x="1130" y="376.5" width="120" height="57" as="geometry" />
        </mxCell>
        <mxCell id="GGq2lKGUmqqDdp-gL5Bd-8" value="&lt;font style=&quot;font-size: 12px&quot;&gt;&lt;span style=&quot;color: rgb(255 , 0 , 0) ; white-space: nowrap&quot;&gt;異常現象代碼&lt;/span&gt;&lt;br&gt;&lt;/font&gt;" style="rounded=0;whiteSpace=wrap;html=1;strokeColor=#82b366;strokeWidth=1;fontSize=21;align=left;fillColor=#d5e8d4;" vertex="1" parent="1">
          <mxGeometry x="1130" y="490" width="120" height="28" as="geometry" />
        </mxCell>
        <mxCell id="GGq2lKGUmqqDdp-gL5Bd-20" style="edgeStyle=orthogonalEdgeStyle;rounded=0;orthogonalLoop=1;jettySize=auto;html=1;exitX=1;exitY=0.5;exitDx=0;exitDy=0;entryX=0;entryY=0.5;entryDx=0;entryDy=0;" edge="1" parent="1" source="GGq2lKGUmqqDdp-gL5Bd-10" target="GGq2lKGUmqqDdp-gL5Bd-8">
          <mxGeometry relative="1" as="geometry" />
        </mxCell>
        <mxCell id="GGq2lKGUmqqDdp-gL5Bd-10" value="&lt;div style=&quot;text-align: left&quot;&gt;異常現象代碼&lt;/div&gt;" style="text;html=1;strokeColor=#82b366;fillColor=#d5e8d4;align=center;verticalAlign=middle;whiteSpace=wrap;rounded=0;strokeWidth=1;labelPosition=center;verticalLabelPosition=middle;spacingLeft=0;" vertex="1" parent="1">
          <mxGeometry x="860" y="490" width="205" height="30" as="geometry" />
        </mxCell>
        <mxCell id="GGq2lKGUmqqDdp-gL5Bd-12" value="&lt;font style=&quot;font-size: 12px&quot;&gt;故障情形說明&lt;br&gt;&lt;/font&gt;" style="rounded=0;whiteSpace=wrap;html=1;strokeColor=#82b366;strokeWidth=1;fontSize=21;align=left;fillColor=#d5e8d4;" vertex="1" parent="1">
          <mxGeometry x="1130" y="442" width="120" height="28" as="geometry" />
        </mxCell>
        <mxCell id="GGq2lKGUmqqDdp-gL5Bd-25" value="&lt;div&gt;&lt;span style=&quot;color: rgb(255 , 0 , 0) ; white-space: nowrap&quot;&gt;必填&lt;/span&gt;&lt;span style=&quot;white-space: nowrap&quot;&gt;欄位&lt;/span&gt;&lt;span style=&quot;white-space: nowrap&quot;&gt;&lt;font color=&quot;#0000ff&quot;&gt;&lt;br&gt;&lt;/font&gt;&lt;/span&gt;&lt;/div&gt;&lt;div style=&quot;text-align: left&quot;&gt;&lt;span style=&quot;white-space: nowrap&quot;&gt;&lt;font color=&quot;#0000ff&quot;&gt;預計停機時間(迄)&lt;/font&gt;&lt;/span&gt;&lt;/div&gt;" style="rounded=0;whiteSpace=wrap;html=1;align=center;labelBorderColor=none;fillColor=#e1d5e7;strokeColor=#9673a6;" vertex="1" parent="1">
          <mxGeometry x="820" y="614.52" width="99.75" height="40" as="geometry" />
        </mxCell>
        <mxCell id="GGq2lKGUmqqDdp-gL5Bd-30" style="edgeStyle=orthogonalEdgeStyle;rounded=0;orthogonalLoop=1;jettySize=auto;html=1;exitX=0.5;exitY=1;exitDx=0;exitDy=0;entryX=0.5;entryY=0;entryDx=0;entryDy=0;" edge="1" parent="1" source="GGq2lKGUmqqDdp-gL5Bd-24" target="aB7RVZYVdwej4RVqtIuG-110">
          <mxGeometry relative="1" as="geometry" />
        </mxCell>
        <mxCell id="GGq2lKGUmqqDdp-gL5Bd-24" value="&lt;blockquote style=&quot;margin: 0 0 0 40px ; border: none ; padding: 0px&quot;&gt;&lt;div style=&quot;text-align: left&quot;&gt;&lt;span style=&quot;white-space: nowrap&quot;&gt;欄位資料填寫&lt;/span&gt;&lt;/div&gt;&lt;/blockquote&gt;&lt;div style=&quot;text-align: left&quot;&gt;&lt;ol&gt;&lt;li&gt;&lt;span style=&quot;color: rgb(0 , 0 , 255) ; white-space: nowrap&quot;&gt;預計停機時間(迄)&lt;/span&gt;&lt;/li&gt;&lt;li&gt;&lt;span style=&quot;text-align: center&quot;&gt;刷QRCode&lt;/span&gt;&lt;/li&gt;&lt;/ol&gt;&lt;/div&gt;" style="rounded=0;whiteSpace=wrap;html=1;align=center;labelBorderColor=none;fillColor=#e1d5e7;strokeColor=#9673a6;spacingLeft=-15;" vertex="1" parent="1">
          <mxGeometry x="385.69" y="614.52" width="123.63" height="85.48" as="geometry" />
        </mxCell>
        <mxCell id="GGq2lKGUmqqDdp-gL5Bd-35" style="edgeStyle=orthogonalEdgeStyle;rounded=0;orthogonalLoop=1;jettySize=auto;html=1;exitX=0.5;exitY=1;exitDx=0;exitDy=0;entryX=0.5;entryY=0;entryDx=0;entryDy=0;" edge="1" parent="1" source="GGq2lKGUmqqDdp-gL5Bd-32" target="aB7RVZYVdwej4RVqtIuG-81">
          <mxGeometry relative="1" as="geometry" />
        </mxCell>
        <mxCell id="GGq2lKGUmqqDdp-gL5Bd-32" value="&lt;blockquote style=&quot;margin: 0 0 0 40px ; border: none ; padding: 0px&quot;&gt;&lt;div style=&quot;text-align: left&quot;&gt;&lt;span style=&quot;white-space: nowrap&quot;&gt;欄位資料填寫&lt;/span&gt;&lt;/div&gt;&lt;/blockquote&gt;&lt;div style=&quot;text-align: left&quot;&gt;&lt;ol&gt;&lt;li&gt;&lt;span style=&quot;white-space: nowrap&quot;&gt;代理人&lt;/span&gt;&lt;/li&gt;&lt;li&gt;&lt;span style=&quot;white-space: nowrap&quot;&gt;作業類別&lt;/span&gt;&lt;/li&gt;&lt;li&gt;&lt;span style=&quot;white-space: nowrap&quot;&gt;刷機台QRCode&lt;/span&gt;&lt;/li&gt;&lt;li&gt;&lt;span style=&quot;white-space: nowrap&quot;&gt;設備狀況&lt;/span&gt;&lt;/li&gt;&lt;li&gt;&lt;span style=&quot;white-space: nowrap&quot;&gt;故障情形說明&lt;/span&gt;&lt;/li&gt;&lt;li&gt;&lt;span style=&quot;white-space: nowrap&quot;&gt;異常現象代碼&lt;/span&gt;&lt;/li&gt;&lt;/ol&gt;&lt;/div&gt;" style="rounded=0;whiteSpace=wrap;html=1;align=center;labelBorderColor=none;fillColor=#e1d5e7;strokeColor=#9673a6;spacingLeft=-15;" vertex="1" parent="1">
          <mxGeometry x="382.51" y="320" width="130" height="140" as="geometry" />
        </mxCell>
      </root>
    </mxGraphModel>
  </diagram>
</mxfile>
